<svg width="164" height="48" viewBox="0 0 164 48" fill="none" xmlns="http://www.w3.org/2000/svg">
<rect width="164" height="47.866" rx="23.933" fill="#0D383E"/>
<path d="M26.0182 23.5561L26.4199 22.7024C27.8763 22.7359 29.0816 22.9702 30.0358 23.4055C30.9899 23.824 31.693 24.4015 32.145 25.1381C32.597 25.8579 32.823 26.6865 32.823 27.624C32.823 28.6284 32.5803 29.524 32.0948 30.3107C31.6261 31.0975 30.9314 31.7169 30.0107 32.1689C29.09 32.6209 27.9349 32.8469 26.5455 32.8469H13.3376L14.794 23.1795L13.3376 14.0143H26.0684C27.8093 14.0143 29.1569 14.4245 30.1111 15.2447C31.082 16.0482 31.5675 17.1615 31.5675 18.5844C31.5675 19.3544 31.3833 20.0993 31.0151 20.8191C30.6635 21.539 30.0776 22.15 29.2574 22.6522C28.4538 23.1376 27.3741 23.439 26.0182 23.5561ZM17.5561 31.7671L15.9239 29.7081H25.6666C26.5706 29.7081 27.2653 29.4989 27.7508 29.0804C28.253 28.6451 28.5041 28.0425 28.5041 27.2724C28.5041 26.4857 28.2195 25.8663 27.6503 25.4143C27.0812 24.9456 26.2442 24.7112 25.1393 24.7112H17.2045V21.6478H24.6371C25.3904 21.6478 26.0098 21.4385 26.4953 21.02C26.9975 20.5848 27.2486 19.9821 27.2486 19.2121C27.2486 18.6262 27.0393 18.1407 26.6208 17.7557C26.2023 17.354 25.5997 17.1531 24.8129 17.1531H15.9239L17.5561 15.0941L18.8869 23.1795L17.5561 31.7671ZM43.4516 33.2235C41.6772 33.2235 40.1203 32.9138 38.7811 32.2944C37.4419 31.6583 36.3957 30.7795 35.6424 29.6579C34.8891 28.5196 34.5124 27.2055 34.5124 25.7156C34.5124 24.209 34.8891 22.8949 35.6424 21.7733C36.3957 20.635 37.4419 19.7562 38.7811 19.1368C40.1203 18.5007 41.6772 18.1826 43.4516 18.1826C45.226 18.1826 46.7829 18.5007 48.1221 19.1368C49.4613 19.7562 50.4991 20.635 51.2357 21.7733C51.989 22.8949 52.3657 24.209 52.3657 25.7156C52.3657 27.2055 51.989 28.5196 51.2357 29.6579C50.4991 30.7795 49.4613 31.6583 48.1221 32.2944C46.7829 32.9138 45.226 33.2235 43.4516 33.2235ZM43.4516 30.0345C44.4225 30.0345 45.2511 29.8588 45.9375 29.5072C46.6406 29.1557 47.1763 28.6619 47.5445 28.0257C47.9296 27.3729 48.1221 26.6028 48.1221 25.7156C48.1221 24.8116 47.9296 24.0416 47.5445 23.4055C47.1763 22.7526 46.6406 22.2504 45.9375 21.8989C45.2511 21.5473 44.4225 21.3716 43.4516 21.3716C42.4974 21.3716 41.6688 21.5473 40.9657 21.8989C40.2626 22.2504 39.7186 22.7526 39.3335 23.4055C38.9653 24.0416 38.7811 24.8116 38.7811 25.7156C38.7811 26.6028 38.9653 27.3729 39.3335 28.0257C39.7186 28.6619 40.2626 29.1557 40.9657 29.5072C41.6688 29.8588 42.4974 30.0345 43.4516 30.0345ZM62.9953 33.2235C61.2208 33.2235 59.664 32.9138 58.3248 32.2944C56.9856 31.6583 55.9393 30.7795 55.186 29.6579C54.4327 28.5196 54.0561 27.2055 54.0561 25.7156C54.0561 24.209 54.4327 22.8949 55.186 21.7733C55.9393 20.635 56.9856 19.7562 58.3248 19.1368C59.664 18.5007 61.2208 18.1826 62.9953 18.1826C64.7697 18.1826 66.3265 18.5007 67.6657 19.1368C69.0049 19.7562 70.0428 20.635 70.7794 21.7733C71.5327 22.8949 71.9093 24.209 71.9093 25.7156C71.9093 27.2055 71.5327 28.5196 70.7794 29.6579C70.0428 30.7795 69.0049 31.6583 67.6657 32.2944C66.3265 32.9138 64.7697 33.2235 62.9953 33.2235ZM62.9953 30.0345C63.9662 30.0345 64.7948 29.8588 65.4812 29.5072C66.1842 29.1557 66.7199 28.6619 67.0882 28.0257C67.4732 27.3729 67.6657 26.6028 67.6657 25.7156C67.6657 24.8116 67.4732 24.0416 67.0882 23.4055C66.7199 22.7526 66.1842 22.2504 65.4812 21.8989C64.7948 21.5473 63.9662 21.3716 62.9953 21.3716C62.0411 21.3716 61.2124 21.5473 60.5094 21.8989C59.8063 22.2504 59.2622 22.7526 58.8772 23.4055C58.5089 24.0416 58.3248 24.8116 58.3248 25.7156C58.3248 26.6028 58.5089 27.3729 58.8772 28.0257C59.2622 28.6619 59.8063 29.1557 60.5094 29.5072C61.2124 29.8588 62.0411 30.0345 62.9953 30.0345ZM78.5464 29.3817L77.3662 28.9548L85.8534 18.5592H90.4235L78.1698 32.8469H74.353V13.5121H78.5464V29.3817ZM81.7856 25.8412L84.8742 23.4557L90.8252 32.8469H86.0292L81.7856 25.8412ZM104.708 23.5561L105.11 22.7024C106.566 22.7359 107.771 22.9702 108.725 23.4055C109.68 23.824 110.383 24.4015 110.835 25.1381C111.287 25.8579 111.513 26.6865 111.513 27.624C111.513 28.6284 111.27 29.524 110.784 30.3107C110.316 31.0975 109.621 31.7169 108.7 32.1689C107.78 32.6209 106.624 32.8469 105.235 32.8469H92.0272L93.4836 23.1795L92.0272 14.0143H104.758C106.499 14.0143 107.847 14.4245 108.801 15.2447C109.772 16.0482 110.257 17.1615 110.257 18.5844C110.257 19.3544 110.073 20.0993 109.705 20.8191C109.353 21.539 108.767 22.15 107.947 22.6522C107.143 23.1376 106.064 23.439 104.708 23.5561ZM96.2457 31.7671L94.6135 29.7081H104.356C105.26 29.7081 105.955 29.4989 106.44 29.0804C106.943 28.6451 107.194 28.0425 107.194 27.2724C107.194 26.4857 106.909 25.8663 106.34 25.4143C105.771 24.9456 104.934 24.7112 103.829 24.7112H95.8941V21.6478H103.327C104.08 21.6478 104.699 21.4385 105.185 21.02C105.687 20.5848 105.938 19.9821 105.938 19.2121C105.938 18.6262 105.729 18.1407 105.31 17.7557C104.892 17.354 104.289 17.1531 103.502 17.1531H94.6135L96.2457 15.0941L97.5765 23.1795L96.2457 31.7671ZM120.007 33.2235C118.684 33.2235 117.554 32.9557 116.617 32.42C115.696 31.8676 114.985 31.0892 114.483 30.0848C113.997 29.0804 113.754 27.8918 113.754 26.5191V18.5592H117.948V25.8914C117.948 27.1636 118.249 28.1345 118.852 28.8041C119.454 29.457 120.308 29.7834 121.413 29.7834C122.233 29.7834 122.928 29.616 123.497 29.2812C124.083 28.9297 124.535 28.4275 124.853 27.7746C125.171 27.1218 125.33 26.3601 125.33 25.4896L126.686 26.2178C126.519 27.6909 126.125 28.9548 125.506 30.0094C124.887 31.0473 124.1 31.8425 123.146 32.3949C122.208 32.9473 121.162 33.2235 120.007 33.2235ZM126.209 32.8469L125.33 27.4231V18.5592H129.524V28.0508L130.402 32.8469H126.209ZM145.995 32.8469L145.392 27.4482L146.195 25.7407L145.417 23.6566L146.547 13.5121H150.891L149.51 25.4143L150.339 32.8469H145.995ZM147.024 25.7156C146.756 27.2222 146.262 28.5447 145.543 29.683C144.839 30.8046 143.944 31.6751 142.856 32.2944C141.784 32.9138 140.579 33.2235 139.24 33.2235C137.851 33.2235 136.62 32.9138 135.549 32.2944C134.477 31.6583 133.64 30.7795 133.038 29.6579C132.452 28.5196 132.159 27.2055 132.159 25.7156C132.159 24.209 132.452 22.8949 133.038 21.7733C133.64 20.635 134.477 19.7562 135.549 19.1368C136.62 18.5007 137.851 18.1826 139.24 18.1826C140.579 18.1826 141.784 18.4923 142.856 19.1117C143.944 19.731 144.848 20.6099 145.568 21.7482C146.288 22.8698 146.773 24.1923 147.024 25.7156ZM136.403 25.7156C136.403 26.5526 136.57 27.2892 136.905 27.9253C137.256 28.5614 137.733 29.0636 138.336 29.4319C138.939 29.7834 139.633 29.9592 140.42 29.9592C141.207 29.9592 141.943 29.7834 142.63 29.4319C143.333 29.0636 143.952 28.5614 144.488 27.9253C145.024 27.2892 145.442 26.5526 145.743 25.7156C145.442 24.8786 145.024 24.142 144.488 23.5059C143.952 22.8531 143.333 22.3509 142.63 21.9993C141.943 21.631 141.207 21.4469 140.42 21.4469C139.633 21.4469 138.939 21.631 138.336 21.9993C137.733 22.3509 137.256 22.8531 136.905 23.5059C136.57 24.142 136.403 24.8786 136.403 25.7156Z" fill="#F6F4E4"/>
</svg>
