<svg width="57" height="48" viewBox="0 0 57 48" fill="none" xmlns="http://www.w3.org/2000/svg">
<rect width="57" height="48" rx="8" fill="#FF6446"/>
<path d="M20.3763 23.5781L20.778 22.7244C22.2344 22.7579 23.4397 22.9922 24.3939 23.4275C25.3481 23.846 26.0511 24.4235 26.5031 25.1601C26.9551 25.8799 27.1811 26.7085 27.1811 27.646C27.1811 28.6504 26.9384 29.546 26.4529 30.3327C25.9842 31.1195 25.2895 31.7389 24.3688 32.1909C23.4481 32.6429 22.293 32.8689 20.9036 32.8689H7.6957L9.15208 23.2015L7.6957 14.0363H20.4265C22.1675 14.0363 23.515 14.4464 24.4692 15.2667C25.4401 16.0702 25.9256 17.1834 25.9256 18.6063C25.9256 19.3764 25.7415 20.1213 25.3732 20.8411C25.0216 21.561 24.4357 22.172 23.6155 22.6742C22.8119 23.1596 21.7322 23.461 20.3763 23.5781ZM11.9142 31.7891L10.282 29.7301H20.0247C20.9287 29.7301 21.6234 29.5208 22.1089 29.1023C22.6111 28.6671 22.8622 28.0645 22.8622 27.2944C22.8622 26.5076 22.5776 25.8883 22.0084 25.4363C21.4393 24.9676 20.6023 24.7332 19.4974 24.7332H11.5626V21.6698H18.9952C19.7485 21.6698 20.3679 21.4605 20.8534 21.042C21.3556 20.6068 21.6067 20.0041 21.6067 19.2341C21.6067 18.6482 21.3974 18.1627 20.9789 17.7777C20.5604 17.376 19.9578 17.1751 19.171 17.1751H10.282L11.9142 15.116L13.245 23.2015L11.9142 31.7891ZM42.1024 23.5781L42.5041 22.7244C43.9605 22.7579 45.1658 22.9922 46.12 23.4275C47.0741 23.846 47.7772 24.4235 48.2292 25.1601C48.6812 25.8799 48.9072 26.7085 48.9072 27.646C48.9072 28.6504 48.6644 29.546 48.179 30.3327C47.7103 31.1195 47.0155 31.7389 46.0948 32.1909C45.1741 32.6429 44.0191 32.8689 42.6297 32.8689H29.4218L30.8782 23.2015L29.4218 14.0363H42.1526C43.8935 14.0363 45.2411 14.4464 46.1953 15.2667C47.1662 16.0702 47.6517 17.1834 47.6517 18.6063C47.6517 19.3764 47.4675 20.1213 47.0992 20.8411C46.7477 21.561 46.1618 22.172 45.3415 22.6742C44.538 23.1596 43.4583 23.461 42.1024 23.5781ZM33.6403 31.7891L32.0081 29.7301H41.7508C42.6548 29.7301 43.3495 29.5208 43.8349 29.1023C44.3371 28.6671 44.5882 28.0645 44.5882 27.2944C44.5882 26.5076 44.3037 25.8883 43.7345 25.4363C43.1653 24.9676 42.3283 24.7332 41.2235 24.7332H33.2887V21.6698H40.7213C41.4746 21.6698 42.094 21.4605 42.5794 21.042C43.0816 20.6068 43.3327 20.0041 43.3327 19.2341C43.3327 18.6482 43.1235 18.1627 42.705 17.7777C42.2865 17.376 41.6838 17.1751 40.8971 17.1751H32.0081L33.6403 15.116L34.9711 23.2015L33.6403 31.7891Z" fill="#F6F4E4"/>
</svg>
