<svg width="27" height="26" viewBox="0 0 27 26" fill="none" xmlns="http://www.w3.org/2000/svg">
<path d="M19.3972 16.8288C20.919 14.752 21.6006 12.1771 21.3056 9.61922C21.0107 7.06137 19.7609 4.70922 17.8064 3.03336C15.8519 1.35749 13.3368 0.481503 10.7643 0.580642C8.19178 0.67978 5.75153 1.74673 3.93178 3.56805C2.11203 5.38936 1.04697 7.83071 0.949685 10.4037C0.852402 12.9766 1.73007 15.4915 3.40709 17.445C5.08412 19.3986 7.43683 20.6468 9.99453 20.94C12.5522 21.2331 15.1263 20.5496 17.2017 19.0262H17.2002C17.2473 19.0891 17.2976 19.1488 17.3542 19.2069L23.4048 25.2584C23.6994 25.5533 24.0992 25.7191 24.5161 25.7192C24.933 25.7194 25.3329 25.5539 25.6277 25.2591C25.9226 24.9644 26.0884 24.5646 26.0885 24.1477C26.0887 23.7307 25.9232 23.3308 25.6285 23.0358L19.578 16.9844C19.5218 16.9275 19.4614 16.8766 19.3972 16.8288ZM19.8027 10.7868C19.8027 11.9221 19.5791 13.0462 19.1447 14.0951C18.7104 15.1439 18.0737 16.0969 17.271 16.8997C16.4684 17.7024 15.5155 18.3392 14.4668 18.7737C13.4181 19.2081 12.2941 19.4317 11.159 19.4317C10.0239 19.4317 8.89995 19.2081 7.85125 18.7737C6.80255 18.3392 5.84968 17.7024 5.04704 16.8997C4.2444 16.0969 3.60771 15.1439 3.17333 14.0951C2.73894 13.0462 2.51537 11.9221 2.51537 10.7868C2.51537 8.49406 3.42604 6.2952 5.04704 4.67397C6.66804 3.05274 8.86659 2.14194 11.159 2.14194C13.4515 2.14194 15.65 3.05274 17.271 4.67397C18.892 6.2952 19.8027 8.49406 19.8027 10.7868Z" fill="#0D383E"/>
</svg>
