<svg width="56" height="48" viewBox="0 0 56 48" fill="none" xmlns="http://www.w3.org/2000/svg">
<path d="M28 13.5C29.7857 6.59189 36.5301 3.06454 51.2143 3.00001C51.449 2.99914 51.6816 3.04382 51.8987 3.13146C52.1157 3.21909 52.3129 3.34797 52.4789 3.51064C52.6449 3.67332 52.7764 3.86658 52.8659 4.07929C52.9553 4.292 53.0009 4.51996 53 4.75001V36.25C53 36.7141 52.8119 37.1593 52.477 37.4874C52.1421 37.8156 51.6879 38 51.2143 38C36.9286 38 31.4096 40.823 28 45C24.6105 40.8438 19.0714 38 4.78573 38C3.68305 38 3.00001 37.1195 3.00001 36.0389V4.75001C2.99913 4.51996 3.04471 4.292 3.13414 4.07929C3.22357 3.86658 3.35507 3.67332 3.52106 3.51064C3.68706 3.34797 3.88426 3.21909 4.10132 3.13146C4.31837 3.04382 4.55097 2.99914 4.78573 3.00001C19.4699 3.06454 26.2143 6.59189 28 13.5ZM28 13.5V45V13.5Z" fill="#F6F4E4"/>
<path d="M28 13.5C29.7857 6.59189 36.5301 3.06454 51.2143 3.00001C51.449 2.99914 51.6816 3.04382 51.8987 3.13146C52.1157 3.21909 52.3129 3.34797 52.4789 3.51064C52.6449 3.67332 52.7764 3.86658 52.8659 4.07929C52.9553 4.292 53.0009 4.51996 53 4.75001V36.25C53 36.7141 52.8119 37.1593 52.477 37.4874C52.1421 37.8156 51.6879 38 51.2143 38C36.9286 38 31.4096 40.823 28 45M28 13.5C26.2143 6.59189 19.4699 3.06454 4.78573 3.00001C4.55097 2.99914 4.31837 3.04382 4.10132 3.13146C3.88426 3.21909 3.68706 3.34797 3.52106 3.51064C3.35507 3.67332 3.22357 3.86658 3.13414 4.07929C3.04471 4.292 2.99913 4.51996 3.00001 4.75001V36.0389C3.00001 37.1195 3.68305 38 4.78573 38C19.0714 38 24.6105 40.8438 28 45M28 13.5V45" stroke="#FF6446" stroke-width="4.61" stroke-linecap="round" stroke-linejoin="round"/>
</svg>
